<mxfile host="app.diagrams.net" agent="Mozilla/5.0 (Macintosh; Intel Mac OS X 10_15_7) AppleWebKit/537.36 (KHTML, like Gecko) Chrome/135.0.0.0 Safari/537.36 Edg/135.0.0.0" version="26.2.14">
  <diagram name="第 1 页" id="25oM3wnzqamX1OeAVasi">
    <mxGraphModel dx="1179" dy="793" grid="1" gridSize="10" guides="1" tooltips="1" connect="1" arrows="1" fold="1" page="1" pageScale="1" pageWidth="827" pageHeight="1169" math="0" shadow="0">
      <root>
        <mxCell id="0" />
        <mxCell id="1" parent="0" />
        <mxCell id="S1GnUmYBzKrTAGZHPjBp-1" value="" style="shape=flexArrow;endArrow=classic;html=1;rounded=0;exitX=0.5;exitY=1;exitDx=0;exitDy=0;entryX=0.5;entryY=0;entryDx=0;entryDy=0;fontFamily=Times New Roman;fontSize=10;" parent="1" source="S1GnUmYBzKrTAGZHPjBp-7" target="S1GnUmYBzKrTAGZHPjBp-16" edge="1">
          <mxGeometry width="50" height="50" relative="1" as="geometry">
            <mxPoint x="250" y="610" as="sourcePoint" />
            <mxPoint x="140" y="380" as="targetPoint" />
          </mxGeometry>
        </mxCell>
        <mxCell id="S1GnUmYBzKrTAGZHPjBp-2" value="" style="shape=flexArrow;endArrow=classic;html=1;rounded=0;exitX=0.5;exitY=1;exitDx=0;exitDy=0;entryX=0.5;entryY=0;entryDx=0;entryDy=0;fontFamily=Times New Roman;fontSize=10;" parent="1" source="S1GnUmYBzKrTAGZHPjBp-16" target="S1GnUmYBzKrTAGZHPjBp-28" edge="1">
          <mxGeometry width="50" height="50" relative="1" as="geometry">
            <mxPoint x="240" y="380" as="sourcePoint" />
            <mxPoint x="320" y="380" as="targetPoint" />
          </mxGeometry>
        </mxCell>
        <mxCell id="S1GnUmYBzKrTAGZHPjBp-3" value="" style="shape=flexArrow;endArrow=classic;html=1;rounded=0;exitX=1;exitY=0.5;exitDx=0;exitDy=0;entryX=0;entryY=0.5;entryDx=0;entryDy=0;fontFamily=Times New Roman;fontSize=10;" parent="1" source="S1GnUmYBzKrTAGZHPjBp-28" target="S1GnUmYBzKrTAGZHPjBp-40" edge="1">
          <mxGeometry width="50" height="50" relative="1" as="geometry">
            <mxPoint x="420" y="380" as="sourcePoint" />
            <mxPoint x="500" y="380" as="targetPoint" />
          </mxGeometry>
        </mxCell>
        <mxCell id="S1GnUmYBzKrTAGZHPjBp-4" value="" style="shape=flexArrow;endArrow=classic;html=1;rounded=0;exitX=1;exitY=0.5;exitDx=0;exitDy=0;entryX=0;entryY=0.5;entryDx=0;entryDy=0;fontFamily=Times New Roman;fontSize=10;" parent="1" source="S1GnUmYBzKrTAGZHPjBp-52" target="S1GnUmYBzKrTAGZHPjBp-65" edge="1">
          <mxGeometry width="50" height="50" relative="1" as="geometry">
            <mxPoint x="770" y="384.08000000000004" as="sourcePoint" />
            <mxPoint x="850" y="384.08000000000004" as="targetPoint" />
          </mxGeometry>
        </mxCell>
        <mxCell id="S1GnUmYBzKrTAGZHPjBp-5" value="" style="shape=flexArrow;endArrow=classic;html=1;rounded=0;entryX=0;entryY=0.5;entryDx=0;entryDy=0;exitX=1;exitY=0.5;exitDx=0;exitDy=0;fontFamily=Times New Roman;fontSize=10;" parent="1" source="S1GnUmYBzKrTAGZHPjBp-40" target="S1GnUmYBzKrTAGZHPjBp-52" edge="1">
          <mxGeometry width="50" height="50" relative="1" as="geometry">
            <mxPoint x="70" y="544.5" as="sourcePoint" />
            <mxPoint x="140" y="544.5" as="targetPoint" />
          </mxGeometry>
        </mxCell>
        <mxCell id="S1GnUmYBzKrTAGZHPjBp-6" value="" style="group;fontFamily=Times New Roman;fontSize=10;" parent="1" vertex="1" connectable="0">
          <mxGeometry x="140" y="60" width="100" height="100" as="geometry" />
        </mxCell>
        <mxCell id="S1GnUmYBzKrTAGZHPjBp-7" value="" style="rounded=0;whiteSpace=wrap;html=1;fontFamily=Times New Roman;fontSize=10;" parent="S1GnUmYBzKrTAGZHPjBp-6" vertex="1">
          <mxGeometry width="100" height="100" as="geometry" />
        </mxCell>
        <mxCell id="S1GnUmYBzKrTAGZHPjBp-8" value="" style="ellipse;whiteSpace=wrap;html=1;aspect=fixed;fillColor=#000000;fontFamily=Times New Roman;fontSize=10;" parent="S1GnUmYBzKrTAGZHPjBp-6" vertex="1">
          <mxGeometry x="10" y="30" width="10" height="10" as="geometry" />
        </mxCell>
        <mxCell id="S1GnUmYBzKrTAGZHPjBp-9" value="" style="ellipse;whiteSpace=wrap;html=1;aspect=fixed;fillColor=#000000;fontFamily=Times New Roman;fontSize=10;" parent="S1GnUmYBzKrTAGZHPjBp-6" vertex="1">
          <mxGeometry x="20" y="10" width="10" height="10" as="geometry" />
        </mxCell>
        <mxCell id="S1GnUmYBzKrTAGZHPjBp-10" value="" style="ellipse;whiteSpace=wrap;html=1;aspect=fixed;fillColor=#000000;fontFamily=Times New Roman;fontSize=10;" parent="S1GnUmYBzKrTAGZHPjBp-6" vertex="1">
          <mxGeometry x="60" y="10" width="10" height="10" as="geometry" />
        </mxCell>
        <mxCell id="S1GnUmYBzKrTAGZHPjBp-11" value="" style="ellipse;whiteSpace=wrap;html=1;aspect=fixed;fillColor=#000000;fontFamily=Times New Roman;fontSize=10;" parent="S1GnUmYBzKrTAGZHPjBp-6" vertex="1">
          <mxGeometry x="80" y="30" width="10" height="10" as="geometry" />
        </mxCell>
        <mxCell id="S1GnUmYBzKrTAGZHPjBp-12" value="" style="ellipse;whiteSpace=wrap;html=1;aspect=fixed;fillColor=#000000;fontFamily=Times New Roman;fontSize=10;" parent="S1GnUmYBzKrTAGZHPjBp-6" vertex="1">
          <mxGeometry x="74" y="16" width="10" height="10" as="geometry" />
        </mxCell>
        <mxCell id="S1GnUmYBzKrTAGZHPjBp-13" value="" style="ellipse;whiteSpace=wrap;html=1;aspect=fixed;fillColor=#000000;fontFamily=Times New Roman;fontSize=10;" parent="S1GnUmYBzKrTAGZHPjBp-6" vertex="1">
          <mxGeometry x="60" y="60" width="10" height="10" as="geometry" />
        </mxCell>
        <mxCell id="S1GnUmYBzKrTAGZHPjBp-14" value="" style="ellipse;whiteSpace=wrap;html=1;aspect=fixed;fillColor=#000000;fontFamily=Times New Roman;fontSize=10;" parent="S1GnUmYBzKrTAGZHPjBp-6" vertex="1">
          <mxGeometry x="40" y="70" width="10" height="10" as="geometry" />
        </mxCell>
        <mxCell id="S1GnUmYBzKrTAGZHPjBp-15" value="" style="group;fontFamily=Times New Roman;fontSize=10;" parent="1" vertex="1" connectable="0">
          <mxGeometry x="140" y="210" width="100" height="100" as="geometry" />
        </mxCell>
        <mxCell id="S1GnUmYBzKrTAGZHPjBp-16" value="" style="rounded=0;whiteSpace=wrap;html=1;fontFamily=Times New Roman;fontSize=10;" parent="S1GnUmYBzKrTAGZHPjBp-15" vertex="1">
          <mxGeometry width="100" height="100" as="geometry" />
        </mxCell>
        <mxCell id="S1GnUmYBzKrTAGZHPjBp-17" value="" style="ellipse;whiteSpace=wrap;html=1;aspect=fixed;fillColor=#000000;fontFamily=Times New Roman;fontSize=10;" parent="S1GnUmYBzKrTAGZHPjBp-15" vertex="1">
          <mxGeometry x="10" y="30" width="10" height="10" as="geometry" />
        </mxCell>
        <mxCell id="S1GnUmYBzKrTAGZHPjBp-18" value="" style="ellipse;whiteSpace=wrap;html=1;aspect=fixed;fillColor=#000000;fontFamily=Times New Roman;fontSize=10;" parent="S1GnUmYBzKrTAGZHPjBp-15" vertex="1">
          <mxGeometry x="20" y="10" width="10" height="10" as="geometry" />
        </mxCell>
        <mxCell id="S1GnUmYBzKrTAGZHPjBp-19" value="" style="ellipse;whiteSpace=wrap;html=1;aspect=fixed;fillColor=#000000;fontFamily=Times New Roman;fontSize=10;" parent="S1GnUmYBzKrTAGZHPjBp-15" vertex="1">
          <mxGeometry x="60" y="10" width="10" height="10" as="geometry" />
        </mxCell>
        <mxCell id="S1GnUmYBzKrTAGZHPjBp-20" value="" style="ellipse;whiteSpace=wrap;html=1;aspect=fixed;fillColor=#000000;fontFamily=Times New Roman;fontSize=10;" parent="S1GnUmYBzKrTAGZHPjBp-15" vertex="1">
          <mxGeometry x="80" y="30" width="10" height="10" as="geometry" />
        </mxCell>
        <mxCell id="S1GnUmYBzKrTAGZHPjBp-21" value="" style="ellipse;whiteSpace=wrap;html=1;aspect=fixed;fillColor=#000000;fontFamily=Times New Roman;fontSize=10;" parent="S1GnUmYBzKrTAGZHPjBp-15" vertex="1">
          <mxGeometry x="74" y="16" width="10" height="10" as="geometry" />
        </mxCell>
        <mxCell id="S1GnUmYBzKrTAGZHPjBp-22" value="" style="ellipse;whiteSpace=wrap;html=1;aspect=fixed;fillColor=#000000;fontFamily=Times New Roman;fontSize=10;" parent="S1GnUmYBzKrTAGZHPjBp-15" vertex="1">
          <mxGeometry x="60" y="60" width="10" height="10" as="geometry" />
        </mxCell>
        <mxCell id="S1GnUmYBzKrTAGZHPjBp-23" value="" style="ellipse;whiteSpace=wrap;html=1;aspect=fixed;fillColor=#000000;fontFamily=Times New Roman;fontSize=10;" parent="S1GnUmYBzKrTAGZHPjBp-15" vertex="1">
          <mxGeometry x="40" y="70" width="10" height="10" as="geometry" />
        </mxCell>
        <mxCell id="S1GnUmYBzKrTAGZHPjBp-24" value="" style="rounded=0;whiteSpace=wrap;html=1;fillColor=#CCFF99;fontFamily=Times New Roman;fontSize=10;" parent="S1GnUmYBzKrTAGZHPjBp-15" vertex="1">
          <mxGeometry x="20" y="50" width="10" height="10" as="geometry" />
        </mxCell>
        <mxCell id="S1GnUmYBzKrTAGZHPjBp-25" value="" style="rounded=0;whiteSpace=wrap;html=1;fillColor=#FF9999;fontFamily=Times New Roman;fontSize=10;" parent="S1GnUmYBzKrTAGZHPjBp-15" vertex="1">
          <mxGeometry x="45" y="20" width="10" height="10" as="geometry" />
        </mxCell>
        <mxCell id="S1GnUmYBzKrTAGZHPjBp-26" value="" style="rounded=0;whiteSpace=wrap;html=1;fillColor=#CCE5FF;fontFamily=Times New Roman;fontSize=10;" parent="S1GnUmYBzKrTAGZHPjBp-15" vertex="1">
          <mxGeometry x="74" y="60" width="10" height="10" as="geometry" />
        </mxCell>
        <mxCell id="S1GnUmYBzKrTAGZHPjBp-27" value="" style="group;fontFamily=Times New Roman;fontSize=10;" parent="1" vertex="1" connectable="0">
          <mxGeometry x="140" y="370" width="100" height="100" as="geometry" />
        </mxCell>
        <mxCell id="S1GnUmYBzKrTAGZHPjBp-28" value="" style="rounded=0;whiteSpace=wrap;html=1;fontFamily=Times New Roman;fontSize=10;" parent="S1GnUmYBzKrTAGZHPjBp-27" vertex="1">
          <mxGeometry width="100" height="100" as="geometry" />
        </mxCell>
        <mxCell id="S1GnUmYBzKrTAGZHPjBp-29" value="" style="ellipse;whiteSpace=wrap;html=1;aspect=fixed;fillColor=#CCFFCC;fontFamily=Times New Roman;fontSize=10;" parent="S1GnUmYBzKrTAGZHPjBp-27" vertex="1">
          <mxGeometry x="10" y="30" width="10" height="10" as="geometry" />
        </mxCell>
        <mxCell id="S1GnUmYBzKrTAGZHPjBp-30" value="" style="ellipse;whiteSpace=wrap;html=1;aspect=fixed;fillColor=#FF9999;fontFamily=Times New Roman;fontSize=10;" parent="S1GnUmYBzKrTAGZHPjBp-27" vertex="1">
          <mxGeometry x="20" y="10" width="10" height="10" as="geometry" />
        </mxCell>
        <mxCell id="S1GnUmYBzKrTAGZHPjBp-31" value="" style="ellipse;whiteSpace=wrap;html=1;aspect=fixed;fillColor=#FF9999;fontFamily=Times New Roman;fontSize=10;" parent="S1GnUmYBzKrTAGZHPjBp-27" vertex="1">
          <mxGeometry x="60" y="10" width="10" height="10" as="geometry" />
        </mxCell>
        <mxCell id="S1GnUmYBzKrTAGZHPjBp-32" value="" style="ellipse;whiteSpace=wrap;html=1;aspect=fixed;fillColor=#CCE5FF;fontFamily=Times New Roman;fontSize=10;" parent="S1GnUmYBzKrTAGZHPjBp-27" vertex="1">
          <mxGeometry x="80" y="30" width="10" height="10" as="geometry" />
        </mxCell>
        <mxCell id="S1GnUmYBzKrTAGZHPjBp-33" value="" style="ellipse;whiteSpace=wrap;html=1;aspect=fixed;fillColor=#FF9999;fontFamily=Times New Roman;fontSize=10;" parent="S1GnUmYBzKrTAGZHPjBp-27" vertex="1">
          <mxGeometry x="74" y="16" width="10" height="10" as="geometry" />
        </mxCell>
        <mxCell id="S1GnUmYBzKrTAGZHPjBp-34" value="" style="ellipse;whiteSpace=wrap;html=1;aspect=fixed;fillColor=#CCE5FF;fontFamily=Times New Roman;fontSize=10;" parent="S1GnUmYBzKrTAGZHPjBp-27" vertex="1">
          <mxGeometry x="60" y="60" width="10" height="10" as="geometry" />
        </mxCell>
        <mxCell id="S1GnUmYBzKrTAGZHPjBp-35" value="" style="ellipse;whiteSpace=wrap;html=1;aspect=fixed;fillColor=#CCFFCC;fontFamily=Times New Roman;fontSize=10;" parent="S1GnUmYBzKrTAGZHPjBp-27" vertex="1">
          <mxGeometry x="40" y="70" width="10" height="10" as="geometry" />
        </mxCell>
        <mxCell id="S1GnUmYBzKrTAGZHPjBp-36" value="" style="rounded=0;whiteSpace=wrap;html=1;fillColor=#CCFFCC;fontFamily=Times New Roman;fontSize=10;" parent="S1GnUmYBzKrTAGZHPjBp-27" vertex="1">
          <mxGeometry x="20" y="50" width="10" height="10" as="geometry" />
        </mxCell>
        <mxCell id="S1GnUmYBzKrTAGZHPjBp-37" value="" style="rounded=0;whiteSpace=wrap;html=1;fillColor=#FF9999;fontFamily=Times New Roman;fontSize=10;" parent="S1GnUmYBzKrTAGZHPjBp-27" vertex="1">
          <mxGeometry x="45" y="20" width="10" height="10" as="geometry" />
        </mxCell>
        <mxCell id="S1GnUmYBzKrTAGZHPjBp-38" value="" style="rounded=0;whiteSpace=wrap;html=1;fillColor=#CCE5FF;fontFamily=Times New Roman;fontSize=10;" parent="S1GnUmYBzKrTAGZHPjBp-27" vertex="1">
          <mxGeometry x="74" y="60" width="10" height="10" as="geometry" />
        </mxCell>
        <mxCell id="S1GnUmYBzKrTAGZHPjBp-39" value="" style="group;fontFamily=Times New Roman;fontSize=10;" parent="1" vertex="1" connectable="0">
          <mxGeometry x="330" y="370" width="100" height="100" as="geometry" />
        </mxCell>
        <mxCell id="S1GnUmYBzKrTAGZHPjBp-40" value="" style="rounded=0;whiteSpace=wrap;html=1;fontFamily=Times New Roman;fontSize=10;" parent="S1GnUmYBzKrTAGZHPjBp-39" vertex="1">
          <mxGeometry width="100" height="100" as="geometry" />
        </mxCell>
        <mxCell id="S1GnUmYBzKrTAGZHPjBp-41" value="" style="ellipse;whiteSpace=wrap;html=1;aspect=fixed;fillColor=#CCFFCC;fontFamily=Times New Roman;fontSize=10;" parent="S1GnUmYBzKrTAGZHPjBp-39" vertex="1">
          <mxGeometry x="10" y="30" width="10" height="10" as="geometry" />
        </mxCell>
        <mxCell id="S1GnUmYBzKrTAGZHPjBp-42" value="" style="ellipse;whiteSpace=wrap;html=1;aspect=fixed;fillColor=#FF9999;fontFamily=Times New Roman;fontSize=10;" parent="S1GnUmYBzKrTAGZHPjBp-39" vertex="1">
          <mxGeometry x="20" y="10" width="10" height="10" as="geometry" />
        </mxCell>
        <mxCell id="S1GnUmYBzKrTAGZHPjBp-43" value="" style="ellipse;whiteSpace=wrap;html=1;aspect=fixed;fillColor=#FF9999;fontFamily=Times New Roman;fontSize=10;" parent="S1GnUmYBzKrTAGZHPjBp-39" vertex="1">
          <mxGeometry x="60" y="10" width="10" height="10" as="geometry" />
        </mxCell>
        <mxCell id="S1GnUmYBzKrTAGZHPjBp-44" value="" style="ellipse;whiteSpace=wrap;html=1;aspect=fixed;fillColor=#CCE5FF;fontFamily=Times New Roman;fontSize=10;" parent="S1GnUmYBzKrTAGZHPjBp-39" vertex="1">
          <mxGeometry x="80" y="30" width="10" height="10" as="geometry" />
        </mxCell>
        <mxCell id="S1GnUmYBzKrTAGZHPjBp-45" value="" style="ellipse;whiteSpace=wrap;html=1;aspect=fixed;fillColor=#FF9999;fontFamily=Times New Roman;fontSize=10;" parent="S1GnUmYBzKrTAGZHPjBp-39" vertex="1">
          <mxGeometry x="74" y="16" width="10" height="10" as="geometry" />
        </mxCell>
        <mxCell id="S1GnUmYBzKrTAGZHPjBp-46" value="" style="ellipse;whiteSpace=wrap;html=1;aspect=fixed;fillColor=#CCE5FF;fontFamily=Times New Roman;fontSize=10;" parent="S1GnUmYBzKrTAGZHPjBp-39" vertex="1">
          <mxGeometry x="60" y="60" width="10" height="10" as="geometry" />
        </mxCell>
        <mxCell id="S1GnUmYBzKrTAGZHPjBp-47" value="" style="ellipse;whiteSpace=wrap;html=1;aspect=fixed;fillColor=#CCFFCC;fontFamily=Times New Roman;fontSize=10;" parent="S1GnUmYBzKrTAGZHPjBp-39" vertex="1">
          <mxGeometry x="40" y="70" width="10" height="10" as="geometry" />
        </mxCell>
        <mxCell id="S1GnUmYBzKrTAGZHPjBp-48" value="" style="rounded=0;whiteSpace=wrap;html=1;fillColor=#CCFFCC;fontFamily=Times New Roman;fontSize=10;" parent="S1GnUmYBzKrTAGZHPjBp-39" vertex="1">
          <mxGeometry x="20" y="40" width="10" height="10" as="geometry" />
        </mxCell>
        <mxCell id="S1GnUmYBzKrTAGZHPjBp-49" value="" style="rounded=0;whiteSpace=wrap;html=1;fillColor=#FF9999;fontFamily=Times New Roman;fontSize=10;" parent="S1GnUmYBzKrTAGZHPjBp-39" vertex="1">
          <mxGeometry x="50" y="10" width="10" height="10" as="geometry" />
        </mxCell>
        <mxCell id="S1GnUmYBzKrTAGZHPjBp-50" value="" style="rounded=0;whiteSpace=wrap;html=1;fillColor=#CCE5FF;fontFamily=Times New Roman;fontSize=10;" parent="S1GnUmYBzKrTAGZHPjBp-39" vertex="1">
          <mxGeometry x="70" y="70" width="10" height="10" as="geometry" />
        </mxCell>
        <mxCell id="S1GnUmYBzKrTAGZHPjBp-51" value="" style="group;fontFamily=Times New Roman;fontSize=10;" parent="1" vertex="1" connectable="0">
          <mxGeometry x="510" y="370" width="100" height="100" as="geometry" />
        </mxCell>
        <mxCell id="S1GnUmYBzKrTAGZHPjBp-52" value="" style="rounded=0;whiteSpace=wrap;html=1;fontFamily=Times New Roman;fontSize=10;" parent="S1GnUmYBzKrTAGZHPjBp-51" vertex="1">
          <mxGeometry width="100" height="100" as="geometry" />
        </mxCell>
        <mxCell id="S1GnUmYBzKrTAGZHPjBp-53" value="" style="ellipse;whiteSpace=wrap;html=1;aspect=fixed;fillColor=#CCFFCC;fontFamily=Times New Roman;fontSize=10;" parent="S1GnUmYBzKrTAGZHPjBp-51" vertex="1">
          <mxGeometry x="10" y="30" width="10" height="10" as="geometry" />
        </mxCell>
        <mxCell id="S1GnUmYBzKrTAGZHPjBp-54" value="" style="ellipse;whiteSpace=wrap;html=1;aspect=fixed;fillColor=#CCFFCC;fontFamily=Times New Roman;fontSize=10;" parent="S1GnUmYBzKrTAGZHPjBp-51" vertex="1">
          <mxGeometry x="20" y="10" width="10" height="10" as="geometry" />
        </mxCell>
        <mxCell id="S1GnUmYBzKrTAGZHPjBp-55" value="" style="ellipse;whiteSpace=wrap;html=1;aspect=fixed;fillColor=#FF9999;fontFamily=Times New Roman;fontSize=10;" parent="S1GnUmYBzKrTAGZHPjBp-51" vertex="1">
          <mxGeometry x="60" y="10" width="10" height="10" as="geometry" />
        </mxCell>
        <mxCell id="S1GnUmYBzKrTAGZHPjBp-56" value="" style="ellipse;whiteSpace=wrap;html=1;aspect=fixed;fillColor=#FF9999;fontFamily=Times New Roman;fontSize=10;" parent="S1GnUmYBzKrTAGZHPjBp-51" vertex="1">
          <mxGeometry x="80" y="30" width="10" height="10" as="geometry" />
        </mxCell>
        <mxCell id="S1GnUmYBzKrTAGZHPjBp-57" value="" style="ellipse;whiteSpace=wrap;html=1;aspect=fixed;fillColor=#FF9999;fontFamily=Times New Roman;fontSize=10;" parent="S1GnUmYBzKrTAGZHPjBp-51" vertex="1">
          <mxGeometry x="74" y="16" width="10" height="10" as="geometry" />
        </mxCell>
        <mxCell id="S1GnUmYBzKrTAGZHPjBp-58" value="" style="ellipse;whiteSpace=wrap;html=1;aspect=fixed;fillColor=#CCE5FF;fontFamily=Times New Roman;fontSize=10;" parent="S1GnUmYBzKrTAGZHPjBp-51" vertex="1">
          <mxGeometry x="60" y="60" width="10" height="10" as="geometry" />
        </mxCell>
        <mxCell id="S1GnUmYBzKrTAGZHPjBp-59" value="" style="ellipse;whiteSpace=wrap;html=1;aspect=fixed;fillColor=#CCE5FF;direction=south;fontFamily=Times New Roman;fontSize=10;" parent="S1GnUmYBzKrTAGZHPjBp-51" vertex="1">
          <mxGeometry x="40" y="70" width="10" height="10" as="geometry" />
        </mxCell>
        <mxCell id="S1GnUmYBzKrTAGZHPjBp-60" value="" style="rounded=0;whiteSpace=wrap;html=1;fillColor=#CCFFCC;fontFamily=Times New Roman;fontSize=10;" parent="S1GnUmYBzKrTAGZHPjBp-51" vertex="1">
          <mxGeometry x="14" y="20" width="10" height="10" as="geometry" />
        </mxCell>
        <mxCell id="S1GnUmYBzKrTAGZHPjBp-61" value="" style="rounded=0;whiteSpace=wrap;html=1;fillColor=#FF9999;fontFamily=Times New Roman;fontSize=10;" parent="S1GnUmYBzKrTAGZHPjBp-51" vertex="1">
          <mxGeometry x="64" y="26" width="10" height="10" as="geometry" />
        </mxCell>
        <mxCell id="S1GnUmYBzKrTAGZHPjBp-62" value="" style="rounded=0;whiteSpace=wrap;html=1;fillColor=#CCE5FF;fontFamily=Times New Roman;fontSize=10;" parent="S1GnUmYBzKrTAGZHPjBp-51" vertex="1">
          <mxGeometry x="49" y="63" width="10" height="10" as="geometry" />
        </mxCell>
        <mxCell id="S1GnUmYBzKrTAGZHPjBp-63" value="" style="curved=1;endArrow=classic;html=1;rounded=0;exitX=1;exitY=0;exitDx=0;exitDy=0;entryX=0;entryY=0;entryDx=0;entryDy=0;fontFamily=Times New Roman;fontSize=10;" parent="S1GnUmYBzKrTAGZHPjBp-51" source="S1GnUmYBzKrTAGZHPjBp-52" target="S1GnUmYBzKrTAGZHPjBp-52" edge="1">
          <mxGeometry width="50" height="50" relative="1" as="geometry">
            <mxPoint x="50.00000000000023" y="-19.999999999999545" as="sourcePoint" />
            <mxPoint x="-50" y="-20" as="targetPoint" />
            <Array as="points">
              <mxPoint x="90" y="-30" />
              <mxPoint x="50" y="-50" />
              <mxPoint x="10" y="-30" />
            </Array>
          </mxGeometry>
        </mxCell>
        <mxCell id="S1GnUmYBzKrTAGZHPjBp-64" value="" style="group;fontFamily=Times New Roman;fontSize=10;" parent="1" vertex="1" connectable="0">
          <mxGeometry x="680" y="370" width="100" height="100" as="geometry" />
        </mxCell>
        <mxCell id="S1GnUmYBzKrTAGZHPjBp-65" value="" style="rounded=0;whiteSpace=wrap;html=1;fontFamily=Times New Roman;fontSize=10;" parent="S1GnUmYBzKrTAGZHPjBp-64" vertex="1">
          <mxGeometry width="100" height="100" as="geometry" />
        </mxCell>
        <mxCell id="S1GnUmYBzKrTAGZHPjBp-66" value="" style="ellipse;whiteSpace=wrap;html=1;aspect=fixed;fillColor=#CCFFCC;fontFamily=Times New Roman;fontSize=10;" parent="S1GnUmYBzKrTAGZHPjBp-64" vertex="1">
          <mxGeometry x="10" y="30" width="10" height="10" as="geometry" />
        </mxCell>
        <mxCell id="S1GnUmYBzKrTAGZHPjBp-67" value="" style="ellipse;whiteSpace=wrap;html=1;aspect=fixed;fillColor=#CCFFCC;fontFamily=Times New Roman;fontSize=10;" parent="S1GnUmYBzKrTAGZHPjBp-64" vertex="1">
          <mxGeometry x="20" y="10" width="10" height="10" as="geometry" />
        </mxCell>
        <mxCell id="S1GnUmYBzKrTAGZHPjBp-68" value="" style="ellipse;whiteSpace=wrap;html=1;aspect=fixed;fillColor=#FF9999;fontFamily=Times New Roman;fontSize=10;" parent="S1GnUmYBzKrTAGZHPjBp-64" vertex="1">
          <mxGeometry x="60" y="10" width="10" height="10" as="geometry" />
        </mxCell>
        <mxCell id="S1GnUmYBzKrTAGZHPjBp-69" value="" style="ellipse;whiteSpace=wrap;html=1;aspect=fixed;fillColor=#FF9999;fontFamily=Times New Roman;fontSize=10;" parent="S1GnUmYBzKrTAGZHPjBp-64" vertex="1">
          <mxGeometry x="80" y="30" width="10" height="10" as="geometry" />
        </mxCell>
        <mxCell id="S1GnUmYBzKrTAGZHPjBp-70" value="" style="ellipse;whiteSpace=wrap;html=1;aspect=fixed;fillColor=#FF9999;fontFamily=Times New Roman;fontSize=10;" parent="S1GnUmYBzKrTAGZHPjBp-64" vertex="1">
          <mxGeometry x="74" y="16" width="10" height="10" as="geometry" />
        </mxCell>
        <mxCell id="S1GnUmYBzKrTAGZHPjBp-71" value="" style="ellipse;whiteSpace=wrap;html=1;aspect=fixed;fillColor=#CCE5FF;fontFamily=Times New Roman;fontSize=10;" parent="S1GnUmYBzKrTAGZHPjBp-64" vertex="1">
          <mxGeometry x="60" y="60" width="10" height="10" as="geometry" />
        </mxCell>
        <mxCell id="S1GnUmYBzKrTAGZHPjBp-72" value="" style="ellipse;whiteSpace=wrap;html=1;aspect=fixed;fillColor=#CCE5FF;fontFamily=Times New Roman;fontSize=10;" parent="S1GnUmYBzKrTAGZHPjBp-64" vertex="1">
          <mxGeometry x="40" y="70" width="10" height="10" as="geometry" />
        </mxCell>
        <mxCell id="S1GnUmYBzKrTAGZHPjBp-73" value="" style="rounded=0;whiteSpace=wrap;html=1;fillColor=#CCFFCC;fontFamily=Times New Roman;fontSize=10;" parent="S1GnUmYBzKrTAGZHPjBp-64" vertex="1">
          <mxGeometry x="14" y="20" width="10" height="10" as="geometry" />
        </mxCell>
        <mxCell id="S1GnUmYBzKrTAGZHPjBp-74" value="" style="rounded=0;whiteSpace=wrap;html=1;fillColor=#FF9999;fontFamily=Times New Roman;fontSize=10;" parent="S1GnUmYBzKrTAGZHPjBp-64" vertex="1">
          <mxGeometry x="64" y="26" width="10" height="10" as="geometry" />
        </mxCell>
        <mxCell id="S1GnUmYBzKrTAGZHPjBp-75" value="" style="rounded=0;whiteSpace=wrap;html=1;fillColor=#CCE5FF;fontFamily=Times New Roman;fontSize=10;" parent="S1GnUmYBzKrTAGZHPjBp-64" vertex="1">
          <mxGeometry x="49" y="63" width="10" height="10" as="geometry" />
        </mxCell>
        <mxCell id="S1GnUmYBzKrTAGZHPjBp-76" value="&lt;p&gt;Samples to be clustered target clustering into 3 classes&lt;/p&gt;" style="rounded=0;whiteSpace=wrap;html=1;fillColor=none;strokeColor=none;fontFamily=Times New Roman;fontSize=10;" parent="1" vertex="1">
          <mxGeometry x="50" y="80" width="80" height="60" as="geometry" />
        </mxCell>
        <mxCell id="S1GnUmYBzKrTAGZHPjBp-77" value="&lt;p&gt;Selection of 3 centers&lt;/p&gt;" style="rounded=0;whiteSpace=wrap;html=1;fillColor=none;strokeColor=none;fontFamily=Times New Roman;fontSize=10;" parent="1" vertex="1">
          <mxGeometry x="55" y="250" width="70" height="60" as="geometry" />
        </mxCell>
        <mxCell id="S1GnUmYBzKrTAGZHPjBp-78" value="&lt;p&gt;Find the closest center point, complete a clustering, determine whether the clustering of sample points before and after this clustering is the same, if the same, the algorithm terminates, otherwise continue to the next step&lt;/p&gt;" style="rounded=0;whiteSpace=wrap;html=1;fillColor=none;strokeColor=none;fontFamily=Times New Roman;fontSize=10;" parent="1" vertex="1">
          <mxGeometry x="92.5" y="470" width="195" height="60" as="geometry" />
        </mxCell>
        <mxCell id="S1GnUmYBzKrTAGZHPjBp-79" value="Based on the results of this clustering, update the center point" style="rounded=0;whiteSpace=wrap;html=1;fillColor=none;strokeColor=none;fontFamily=Times New Roman;fontSize=10;" parent="1" vertex="1">
          <mxGeometry x="310" y="460" width="140" height="60" as="geometry" />
        </mxCell>
        <mxCell id="S1GnUmYBzKrTAGZHPjBp-80" value="&lt;p&gt;Find the closest center point, complete a clustering, determine whether the clustering of sample points before and after this clustering is the same, if the same, the algorithm is terminated&lt;/p&gt;" style="rounded=0;whiteSpace=wrap;html=1;fillColor=none;strokeColor=none;fontFamily=Times New Roman;fontSize=10;" parent="1" vertex="1">
          <mxGeometry x="472.5" y="470" width="175" height="60" as="geometry" />
        </mxCell>
        <mxCell id="S1GnUmYBzKrTAGZHPjBp-82" value="" style="group;fontFamily=Times New Roman;fontSize=10;" parent="1" vertex="1" connectable="0">
          <mxGeometry x="370" y="70" width="370" height="250" as="geometry" />
        </mxCell>
        <mxCell id="S1GnUmYBzKrTAGZHPjBp-83" value="" style="group;fontFamily=Times New Roman;fontSize=10;" parent="S1GnUmYBzKrTAGZHPjBp-82" vertex="1" connectable="0">
          <mxGeometry y="140" width="110" height="110" as="geometry" />
        </mxCell>
        <mxCell id="S1GnUmYBzKrTAGZHPjBp-84" value="" style="endArrow=none;html=1;rounded=0;fontFamily=Times New Roman;fontSize=10;" parent="S1GnUmYBzKrTAGZHPjBp-83" edge="1">
          <mxGeometry width="50" height="50" relative="1" as="geometry">
            <mxPoint y="90" as="sourcePoint" />
            <mxPoint x="110" y="90" as="targetPoint" />
          </mxGeometry>
        </mxCell>
        <mxCell id="S1GnUmYBzKrTAGZHPjBp-85" value="" style="endArrow=none;html=1;rounded=0;fontFamily=Times New Roman;fontSize=10;" parent="S1GnUmYBzKrTAGZHPjBp-83" edge="1">
          <mxGeometry width="50" height="50" relative="1" as="geometry">
            <mxPoint x="20" y="110" as="sourcePoint" />
            <mxPoint x="20" as="targetPoint" />
          </mxGeometry>
        </mxCell>
        <mxCell id="S1GnUmYBzKrTAGZHPjBp-86" value="" style="ellipse;whiteSpace=wrap;html=1;aspect=fixed;fillColor=light-dark(#E29E37,#FF9090);strokeColor=#E29E37;fontFamily=Times New Roman;fontSize=10;" parent="S1GnUmYBzKrTAGZHPjBp-83" vertex="1">
          <mxGeometry x="40" y="58.5" width="7" height="7" as="geometry" />
        </mxCell>
        <mxCell id="S1GnUmYBzKrTAGZHPjBp-87" value="" style="ellipse;whiteSpace=wrap;html=1;aspect=fixed;fillColor=light-dark(#E29E37,#FF9090);strokeColor=#E29E37;fontFamily=Times New Roman;fontSize=10;" parent="S1GnUmYBzKrTAGZHPjBp-83" vertex="1">
          <mxGeometry x="58.5" y="30" width="7" height="7" as="geometry" />
        </mxCell>
        <mxCell id="S1GnUmYBzKrTAGZHPjBp-88" value="" style="ellipse;whiteSpace=wrap;html=1;aspect=fixed;fillColor=light-dark(#E29E37,#FF9090);strokeColor=#E29E37;fontFamily=Times New Roman;fontSize=10;" parent="S1GnUmYBzKrTAGZHPjBp-83" vertex="1">
          <mxGeometry x="51.5" y="80" width="7" height="7" as="geometry" />
        </mxCell>
        <mxCell id="S1GnUmYBzKrTAGZHPjBp-89" value="" style="ellipse;whiteSpace=wrap;html=1;aspect=fixed;fillColor=light-dark(#E29E37,#FF9090);strokeColor=#E29E37;fontFamily=Times New Roman;fontSize=10;" parent="S1GnUmYBzKrTAGZHPjBp-83" vertex="1">
          <mxGeometry x="70" y="58.5" width="7" height="7" as="geometry" />
        </mxCell>
        <mxCell id="S1GnUmYBzKrTAGZHPjBp-90" value="" style="ellipse;whiteSpace=wrap;html=1;aspect=fixed;fillColor=light-dark(#E29E37,#FF9090);strokeColor=#E29E37;fontFamily=Times New Roman;fontSize=10;" parent="S1GnUmYBzKrTAGZHPjBp-83" vertex="1">
          <mxGeometry x="90" y="40" width="7" height="7" as="geometry" />
        </mxCell>
        <mxCell id="S1GnUmYBzKrTAGZHPjBp-91" value="" style="endArrow=none;html=1;rounded=0;fillColor=#d5e8d4;strokeColor=#82b366;fontFamily=Times New Roman;fontSize=10;" parent="S1GnUmYBzKrTAGZHPjBp-83" edge="1">
          <mxGeometry width="50" height="50" relative="1" as="geometry">
            <mxPoint x="90" y="20" as="sourcePoint" />
            <mxPoint x="30" y="97" as="targetPoint" />
          </mxGeometry>
        </mxCell>
        <mxCell id="S1GnUmYBzKrTAGZHPjBp-92" value="&lt;span style=&quot;color: rgba(0, 0, 0, 0.85); text-align: start; background-color: rgb(255, 255, 255);&quot;&gt;&lt;font&gt;0＜ρ＜1&lt;/font&gt;&lt;/span&gt;" style="rounded=0;whiteSpace=wrap;html=1;fillColor=none;strokeColor=none;fontFamily=Times New Roman;fontSize=10;" parent="S1GnUmYBzKrTAGZHPjBp-83" vertex="1">
          <mxGeometry x="58.5" y="10" width="38.5" height="8.5" as="geometry" />
        </mxCell>
        <mxCell id="S1GnUmYBzKrTAGZHPjBp-93" value="" style="group;fontFamily=Times New Roman;fontSize=10;" parent="S1GnUmYBzKrTAGZHPjBp-82" vertex="1" connectable="0">
          <mxGeometry x="130" y="140" width="110" height="110" as="geometry" />
        </mxCell>
        <mxCell id="S1GnUmYBzKrTAGZHPjBp-94" value="" style="endArrow=none;html=1;rounded=0;fontFamily=Times New Roman;fontSize=10;" parent="S1GnUmYBzKrTAGZHPjBp-93" edge="1">
          <mxGeometry width="50" height="50" relative="1" as="geometry">
            <mxPoint y="90" as="sourcePoint" />
            <mxPoint x="110" y="90" as="targetPoint" />
          </mxGeometry>
        </mxCell>
        <mxCell id="S1GnUmYBzKrTAGZHPjBp-95" value="" style="endArrow=none;html=1;rounded=0;fontFamily=Times New Roman;fontSize=10;" parent="S1GnUmYBzKrTAGZHPjBp-93" edge="1">
          <mxGeometry width="50" height="50" relative="1" as="geometry">
            <mxPoint x="20" y="110" as="sourcePoint" />
            <mxPoint x="20" as="targetPoint" />
          </mxGeometry>
        </mxCell>
        <mxCell id="S1GnUmYBzKrTAGZHPjBp-96" value="" style="ellipse;whiteSpace=wrap;html=1;aspect=fixed;fillColor=light-dark(#E29E37,#FF9090);strokeColor=#E29E37;fontFamily=Times New Roman;fontSize=10;" parent="S1GnUmYBzKrTAGZHPjBp-93" vertex="1">
          <mxGeometry x="30" y="57.5" width="7" height="7" as="geometry" />
        </mxCell>
        <mxCell id="S1GnUmYBzKrTAGZHPjBp-97" value="" style="ellipse;whiteSpace=wrap;html=1;aspect=fixed;fillColor=light-dark(#E29E37,#FF9090);strokeColor=#E29E37;fontFamily=Times New Roman;fontSize=10;" parent="S1GnUmYBzKrTAGZHPjBp-93" vertex="1">
          <mxGeometry x="11" y="73" width="7" height="7" as="geometry" />
        </mxCell>
        <mxCell id="S1GnUmYBzKrTAGZHPjBp-98" value="" style="ellipse;whiteSpace=wrap;html=1;aspect=fixed;fillColor=light-dark(#E29E37,#FF9090);strokeColor=#E29E37;fontFamily=Times New Roman;fontSize=10;" parent="S1GnUmYBzKrTAGZHPjBp-93" vertex="1">
          <mxGeometry x="66" y="28" width="7" height="7" as="geometry" />
        </mxCell>
        <mxCell id="S1GnUmYBzKrTAGZHPjBp-99" value="" style="ellipse;whiteSpace=wrap;html=1;aspect=fixed;fillColor=light-dark(#E29E37,#FF9090);strokeColor=#E29E37;fontFamily=Times New Roman;fontSize=10;" parent="S1GnUmYBzKrTAGZHPjBp-93" vertex="1">
          <mxGeometry x="78" y="19" width="7" height="7" as="geometry" />
        </mxCell>
        <mxCell id="S1GnUmYBzKrTAGZHPjBp-100" value="" style="endArrow=none;html=1;rounded=0;fillColor=#d5e8d4;strokeColor=#82b366;fontFamily=Times New Roman;fontSize=10;" parent="S1GnUmYBzKrTAGZHPjBp-93" edge="1">
          <mxGeometry width="50" height="50" relative="1" as="geometry">
            <mxPoint x="97" y="10" as="sourcePoint" />
            <mxPoint x="10" y="80" as="targetPoint" />
          </mxGeometry>
        </mxCell>
        <mxCell id="S1GnUmYBzKrTAGZHPjBp-101" value="&lt;span style=&quot;color: rgba(0, 0, 0, 0.85); text-align: start; background-color: rgb(255, 255, 255);&quot;&gt;&lt;font&gt;ρ=1&lt;/font&gt;&lt;/span&gt;" style="rounded=0;whiteSpace=wrap;html=1;fillColor=none;strokeColor=none;fontFamily=Times New Roman;fontSize=10;" parent="S1GnUmYBzKrTAGZHPjBp-93" vertex="1">
          <mxGeometry x="54.5" y="10.5" width="18.5" height="8.5" as="geometry" />
        </mxCell>
        <mxCell id="S1GnUmYBzKrTAGZHPjBp-102" value="" style="group;fontFamily=Times New Roman;fontSize=10;" parent="S1GnUmYBzKrTAGZHPjBp-82" vertex="1" connectable="0">
          <mxGeometry x="260" y="140" width="110" height="110" as="geometry" />
        </mxCell>
        <mxCell id="S1GnUmYBzKrTAGZHPjBp-103" value="" style="endArrow=none;html=1;rounded=0;fontFamily=Times New Roman;fontSize=10;" parent="S1GnUmYBzKrTAGZHPjBp-102" edge="1">
          <mxGeometry width="50" height="50" relative="1" as="geometry">
            <mxPoint y="90" as="sourcePoint" />
            <mxPoint x="110" y="90" as="targetPoint" />
          </mxGeometry>
        </mxCell>
        <mxCell id="S1GnUmYBzKrTAGZHPjBp-104" value="" style="endArrow=none;html=1;rounded=0;fontFamily=Times New Roman;fontSize=10;" parent="S1GnUmYBzKrTAGZHPjBp-102" edge="1">
          <mxGeometry width="50" height="50" relative="1" as="geometry">
            <mxPoint x="20" y="110" as="sourcePoint" />
            <mxPoint x="20" as="targetPoint" />
          </mxGeometry>
        </mxCell>
        <mxCell id="S1GnUmYBzKrTAGZHPjBp-105" value="" style="ellipse;whiteSpace=wrap;html=1;aspect=fixed;fillColor=light-dark(#E29E37,#FF9090);strokeColor=#E29E37;fontFamily=Times New Roman;fontSize=10;" parent="S1GnUmYBzKrTAGZHPjBp-102" vertex="1">
          <mxGeometry x="30" y="70" width="7" height="7" as="geometry" />
        </mxCell>
        <mxCell id="S1GnUmYBzKrTAGZHPjBp-106" value="" style="ellipse;whiteSpace=wrap;html=1;aspect=fixed;fillColor=light-dark(#E29E37,#FF9090);strokeColor=#E29E37;fontFamily=Times New Roman;fontSize=10;" parent="S1GnUmYBzKrTAGZHPjBp-102" vertex="1">
          <mxGeometry x="37" y="10" width="7" height="7" as="geometry" />
        </mxCell>
        <mxCell id="S1GnUmYBzKrTAGZHPjBp-107" value="" style="ellipse;whiteSpace=wrap;html=1;aspect=fixed;fillColor=light-dark(#E29E37,#FF9090);strokeColor=#E29E37;fontFamily=Times New Roman;fontSize=10;" parent="S1GnUmYBzKrTAGZHPjBp-102" vertex="1">
          <mxGeometry x="51.5" y="30" width="7" height="7" as="geometry" />
        </mxCell>
        <mxCell id="S1GnUmYBzKrTAGZHPjBp-108" value="" style="ellipse;whiteSpace=wrap;html=1;aspect=fixed;fillColor=light-dark(#E29E37,#FF9090);strokeColor=#E29E37;fontFamily=Times New Roman;fontSize=10;" parent="S1GnUmYBzKrTAGZHPjBp-102" vertex="1">
          <mxGeometry x="58.5" y="70" width="7" height="7" as="geometry" />
        </mxCell>
        <mxCell id="S1GnUmYBzKrTAGZHPjBp-109" value="" style="ellipse;whiteSpace=wrap;html=1;aspect=fixed;fillColor=light-dark(#E29E37,#FF9090);strokeColor=#E29E37;fontFamily=Times New Roman;fontSize=10;" parent="S1GnUmYBzKrTAGZHPjBp-102" vertex="1">
          <mxGeometry x="70" y="40" width="7" height="7" as="geometry" />
        </mxCell>
        <mxCell id="S1GnUmYBzKrTAGZHPjBp-110" value="" style="ellipse;whiteSpace=wrap;html=1;aspect=fixed;fillColor=light-dark(#E29E37,#FF9090);strokeColor=#E29E37;fontFamily=Times New Roman;fontSize=10;" parent="S1GnUmYBzKrTAGZHPjBp-102" vertex="1">
          <mxGeometry x="90" y="10" width="7" height="7" as="geometry" />
        </mxCell>
        <mxCell id="S1GnUmYBzKrTAGZHPjBp-111" value="&lt;span style=&quot;color: rgba(0, 0, 0, 0.85); text-align: start; background-color: rgb(255, 255, 255);&quot;&gt;&lt;font&gt;ρ=0&lt;/font&gt;&lt;/span&gt;" style="rounded=0;whiteSpace=wrap;html=1;fillColor=none;strokeColor=none;fontFamily=Times New Roman;fontSize=10;" parent="S1GnUmYBzKrTAGZHPjBp-102" vertex="1">
          <mxGeometry x="65.5" y="9.25" width="18.5" height="8.5" as="geometry" />
        </mxCell>
        <mxCell id="S1GnUmYBzKrTAGZHPjBp-112" value="" style="group;fontFamily=Times New Roman;fontSize=10;" parent="S1GnUmYBzKrTAGZHPjBp-82" vertex="1" connectable="0">
          <mxGeometry x="40" width="110" height="110" as="geometry" />
        </mxCell>
        <mxCell id="S1GnUmYBzKrTAGZHPjBp-113" value="" style="endArrow=none;html=1;rounded=0;fontFamily=Times New Roman;fontSize=10;" parent="S1GnUmYBzKrTAGZHPjBp-112" edge="1">
          <mxGeometry width="50" height="50" relative="1" as="geometry">
            <mxPoint y="90" as="sourcePoint" />
            <mxPoint x="110" y="90" as="targetPoint" />
          </mxGeometry>
        </mxCell>
        <mxCell id="S1GnUmYBzKrTAGZHPjBp-114" value="" style="endArrow=none;html=1;rounded=0;fontFamily=Times New Roman;fontSize=10;" parent="S1GnUmYBzKrTAGZHPjBp-112" edge="1">
          <mxGeometry width="50" height="50" relative="1" as="geometry">
            <mxPoint x="20" y="110" as="sourcePoint" />
            <mxPoint x="20" as="targetPoint" />
          </mxGeometry>
        </mxCell>
        <mxCell id="S1GnUmYBzKrTAGZHPjBp-115" value="" style="ellipse;whiteSpace=wrap;html=1;aspect=fixed;fillColor=light-dark(#E29E37,#FF9090);strokeColor=#E29E37;fontFamily=Times New Roman;fontSize=10;" parent="S1GnUmYBzKrTAGZHPjBp-112" vertex="1">
          <mxGeometry x="27" y="51.5" width="7" height="7" as="geometry" />
        </mxCell>
        <mxCell id="S1GnUmYBzKrTAGZHPjBp-116" value="" style="ellipse;whiteSpace=wrap;html=1;aspect=fixed;fillColor=light-dark(#E29E37,#FF9090);strokeColor=#E29E37;fontFamily=Times New Roman;fontSize=10;" parent="S1GnUmYBzKrTAGZHPjBp-112" vertex="1">
          <mxGeometry x="51.5" y="70" width="7" height="7" as="geometry" />
        </mxCell>
        <mxCell id="S1GnUmYBzKrTAGZHPjBp-117" value="" style="ellipse;whiteSpace=wrap;html=1;aspect=fixed;fillColor=light-dark(#E29E37,#FF9090);strokeColor=#E29E37;fontFamily=Times New Roman;fontSize=10;" parent="S1GnUmYBzKrTAGZHPjBp-112" vertex="1">
          <mxGeometry x="42.5" y="63" width="7" height="7" as="geometry" />
        </mxCell>
        <mxCell id="S1GnUmYBzKrTAGZHPjBp-118" value="&lt;span style=&quot;color: rgba(0, 0, 0, 0.85); text-align: start; background-color: rgb(255, 255, 255);&quot;&gt;&lt;font&gt;ρ=-1&lt;/font&gt;&lt;/span&gt;" style="rounded=0;whiteSpace=wrap;html=1;fillColor=none;strokeColor=none;fontFamily=Times New Roman;fontSize=10;" parent="S1GnUmYBzKrTAGZHPjBp-112" vertex="1">
          <mxGeometry x="70" y="30" width="18.5" height="8.5" as="geometry" />
        </mxCell>
        <mxCell id="S1GnUmYBzKrTAGZHPjBp-119" value="" style="group;fontFamily=Times New Roman;fontSize=10;" parent="S1GnUmYBzKrTAGZHPjBp-82" vertex="1" connectable="0">
          <mxGeometry x="180" width="110" height="110" as="geometry" />
        </mxCell>
        <mxCell id="S1GnUmYBzKrTAGZHPjBp-120" value="" style="endArrow=none;html=1;rounded=0;fontFamily=Times New Roman;fontSize=10;" parent="S1GnUmYBzKrTAGZHPjBp-119" edge="1">
          <mxGeometry width="50" height="50" relative="1" as="geometry">
            <mxPoint y="90" as="sourcePoint" />
            <mxPoint x="110" y="90" as="targetPoint" />
          </mxGeometry>
        </mxCell>
        <mxCell id="S1GnUmYBzKrTAGZHPjBp-121" value="" style="endArrow=none;html=1;rounded=0;fontFamily=Times New Roman;fontSize=10;" parent="S1GnUmYBzKrTAGZHPjBp-119" edge="1">
          <mxGeometry width="50" height="50" relative="1" as="geometry">
            <mxPoint x="20" y="110" as="sourcePoint" />
            <mxPoint x="20" as="targetPoint" />
          </mxGeometry>
        </mxCell>
        <mxCell id="S1GnUmYBzKrTAGZHPjBp-122" value="" style="ellipse;whiteSpace=wrap;html=1;aspect=fixed;fillColor=light-dark(#E29E37,#FF9090);strokeColor=#E29E37;fontFamily=Times New Roman;fontSize=10;" parent="S1GnUmYBzKrTAGZHPjBp-119" vertex="1">
          <mxGeometry x="25" y="31" width="7" height="7" as="geometry" />
        </mxCell>
        <mxCell id="S1GnUmYBzKrTAGZHPjBp-123" value="" style="ellipse;whiteSpace=wrap;html=1;aspect=fixed;fillColor=light-dark(#E29E37,#FF9090);strokeColor=#E29E37;fontFamily=Times New Roman;fontSize=10;" parent="S1GnUmYBzKrTAGZHPjBp-119" vertex="1">
          <mxGeometry x="51.5" y="40" width="7" height="7" as="geometry" />
        </mxCell>
        <mxCell id="S1GnUmYBzKrTAGZHPjBp-124" value="" style="ellipse;whiteSpace=wrap;html=1;aspect=fixed;fillColor=light-dark(#E29E37,#FF9090);strokeColor=#E29E37;fontFamily=Times New Roman;fontSize=10;" parent="S1GnUmYBzKrTAGZHPjBp-119" vertex="1">
          <mxGeometry x="7" y="52" width="7" height="7" as="geometry" />
        </mxCell>
        <mxCell id="S1GnUmYBzKrTAGZHPjBp-125" value="" style="ellipse;whiteSpace=wrap;html=1;aspect=fixed;fillColor=light-dark(#E29E37,#FF9090);strokeColor=#E29E37;fontFamily=Times New Roman;fontSize=10;" parent="S1GnUmYBzKrTAGZHPjBp-119" vertex="1">
          <mxGeometry x="37" y="78" width="7" height="7" as="geometry" />
        </mxCell>
        <mxCell id="S1GnUmYBzKrTAGZHPjBp-126" value="" style="ellipse;whiteSpace=wrap;html=1;aspect=fixed;fillColor=light-dark(#E29E37,#FF9090);strokeColor=#E29E37;fontFamily=Times New Roman;fontSize=10;" parent="S1GnUmYBzKrTAGZHPjBp-119" vertex="1">
          <mxGeometry x="58.5" y="67" width="7" height="7" as="geometry" />
        </mxCell>
        <mxCell id="S1GnUmYBzKrTAGZHPjBp-127" value="" style="endArrow=none;html=1;rounded=0;fillColor=#d5e8d4;strokeColor=#82b366;fontFamily=Times New Roman;fontSize=10;" parent="S1GnUmYBzKrTAGZHPjBp-119" edge="1">
          <mxGeometry width="50" height="50" relative="1" as="geometry">
            <mxPoint x="7" y="38" as="sourcePoint" />
            <mxPoint x="87" y="98" as="targetPoint" />
          </mxGeometry>
        </mxCell>
        <mxCell id="S1GnUmYBzKrTAGZHPjBp-128" value="&lt;span style=&quot;color: rgba(0, 0, 0, 0.85); text-align: start; background-color: rgb(255, 255, 255);&quot;&gt;&lt;font&gt;-1＜ρ＜0&lt;/font&gt;&lt;/span&gt;" style="rounded=0;whiteSpace=wrap;html=1;fillColor=none;strokeColor=none;fontFamily=Times New Roman;fontSize=10;" parent="S1GnUmYBzKrTAGZHPjBp-119" vertex="1">
          <mxGeometry x="64.5" y="27.5" width="45.5" height="8.5" as="geometry" />
        </mxCell>
        <mxCell id="S1GnUmYBzKrTAGZHPjBp-129" value="" style="ellipse;whiteSpace=wrap;html=1;aspect=fixed;fillColor=light-dark(#E29E37,#FF9090);strokeColor=#E29E37;fontFamily=Times New Roman;fontSize=10;" parent="S1GnUmYBzKrTAGZHPjBp-82" vertex="1">
          <mxGeometry x="300" y="220" width="7" height="7" as="geometry" />
        </mxCell>
        <mxCell id="S1GnUmYBzKrTAGZHPjBp-130" value="" style="ellipse;whiteSpace=wrap;html=1;aspect=fixed;fillColor=light-dark(#E29E37,#FF9090);strokeColor=#E29E37;fontFamily=Times New Roman;fontSize=10;" parent="S1GnUmYBzKrTAGZHPjBp-82" vertex="1">
          <mxGeometry x="320" y="240" width="7" height="7" as="geometry" />
        </mxCell>
        <mxCell id="S1GnUmYBzKrTAGZHPjBp-131" value="" style="endArrow=none;html=1;rounded=0;fillColor=#d5e8d4;strokeColor=#82b366;fontFamily=Times New Roman;fontSize=10;" parent="S1GnUmYBzKrTAGZHPjBp-82" edge="1">
          <mxGeometry width="50" height="50" relative="1" as="geometry">
            <mxPoint x="50" y="40" as="sourcePoint" />
            <mxPoint x="130" y="100" as="targetPoint" />
          </mxGeometry>
        </mxCell>
        <mxCell id="S1GnUmYBzKrTAGZHPjBp-132" value="circulate" style="rounded=0;whiteSpace=wrap;html=1;fillColor=none;strokeColor=none;fontFamily=Times New Roman;fontSize=10;" parent="1" vertex="1">
          <mxGeometry x="500" y="320" width="120" height="60" as="geometry" />
        </mxCell>
        <mxCell id="S1GnUmYBzKrTAGZHPjBp-133" value="" style="shape=flexArrow;endArrow=classic;startArrow=classic;html=1;rounded=0;fontFamily=Times New Roman;fontSize=10;" parent="1" edge="1">
          <mxGeometry width="100" height="100" relative="1" as="geometry">
            <mxPoint x="260" y="370" as="sourcePoint" />
            <mxPoint x="360" y="300" as="targetPoint" />
          </mxGeometry>
        </mxCell>
        <mxCell id="S1GnUmYBzKrTAGZHPjBp-134" value="calculated distance" style="edgeLabel;html=1;align=center;verticalAlign=middle;resizable=0;points=[];fontFamily=Times New Roman;fontSize=10;" parent="S1GnUmYBzKrTAGZHPjBp-133" vertex="1" connectable="0">
          <mxGeometry x="-0.0422" y="5" relative="1" as="geometry">
            <mxPoint as="offset" />
          </mxGeometry>
        </mxCell>
        <mxCell id="S1GnUmYBzKrTAGZHPjBp-136" value="The algorithm terminates at the previous step and the clustering result is shown in Figure" style="rounded=0;whiteSpace=wrap;html=1;fillColor=none;strokeColor=none;fontFamily=Times New Roman;fontSize=10;" parent="1" vertex="1">
          <mxGeometry x="672.5" y="470" width="115" height="60" as="geometry" />
        </mxCell>
      </root>
    </mxGraphModel>
  </diagram>
</mxfile>
